<svg width="47" height="17" viewBox="0 0 47 17" fill="none" xmlns="http://www.w3.org/2000/svg">
<g clip-path="url(#clip0_109_2954)">
<path d="M33.4988 11.4244V-0.411743H35.9265V11.4244H33.4988Z" fill="white" fill-opacity="0.51"/>
<path d="M5.20461 14.9403H0V3.10413H4.99532C7.42308 3.10413 8.83767 4.40076 8.83767 6.42899C8.83767 7.74187 7.92917 8.59031 7.30034 8.8728C8.05094 9.20511 9.01174 9.95301 9.01174 11.533C9.01174 13.7433 7.42308 14.9403 5.20461 14.9403ZM4.80316 5.16586H2.42774V7.89217H4.80316C5.83346 7.89217 6.40994 7.34349 6.40994 6.52857C6.40994 5.71454 5.83346 5.16586 4.80316 5.16586ZM4.96013 9.97022H2.42774V12.8794H4.96013C6.06078 12.8794 6.584 12.2149 6.584 11.4163C6.584 10.6185 6.05981 9.97022 4.96013 9.97022Z" fill="white"/>
<path d="M16.4166 10.0861V14.9403H14.006V10.0861L10.2683 3.10413H12.9053L15.2284 7.87497L17.5164 3.10413H20.1534L16.4166 10.0861Z" fill="white"/>
<path d="M27.0362 14.9403H21.8315V3.10413H26.8269C29.2546 3.10413 30.6692 4.40076 30.6692 6.42899C30.6692 7.74187 29.7607 8.59031 29.1319 8.8728C29.8825 9.20511 30.8433 9.95301 30.8433 11.533C30.8433 13.7433 29.2546 14.9403 27.0362 14.9403ZM26.6347 5.16586H24.2593V7.89217H26.6347C27.665 7.89217 28.2415 7.34349 28.2415 6.52857C28.2415 5.71454 27.665 5.16586 26.6347 5.16586ZM26.7917 9.97022H24.2593V12.8794H26.7917C27.8923 12.8794 28.4155 12.2149 28.4155 11.4163C28.4155 10.6185 27.8923 9.97022 26.7917 9.97022Z" fill="white"/>
<path d="M43.7512 5.16586V14.9412H41.3234V5.16586H38.0747V3.10413H46.9999V5.16586H43.7512Z" fill="white"/>
</g>
<defs>
<clipPath id="clip0_109_2954">
<rect width="47" height="16" fill="white" transform="translate(0 0.5)"/>
</clipPath>
</defs>
</svg>
