<svg width="25" height="25" viewBox="0 0 25 25" fill="none" xmlns="http://www.w3.org/2000/svg">
<path fill-rule="evenodd" clip-rule="evenodd" d="M3.51825 5.29419C3.125 5.85447 3.125 7.51988 3.125 10.8507V12.491C3.125 18.364 7.54059 21.2141 10.311 22.4243C11.0625 22.7525 11.4383 22.9167 12.5 22.9167C13.5617 22.9167 13.9375 22.7525 14.689 22.4243C17.4594 21.2141 21.875 18.364 21.875 12.491V10.8507C21.875 7.51988 21.875 5.85447 21.4818 5.29419C21.0885 4.73391 19.5226 4.19788 16.3907 3.12584L15.794 2.92159C14.1615 2.36276 13.3452 2.08334 12.5 2.08334C11.6548 2.08334 10.8385 2.36276 9.20596 2.92159L8.60928 3.12584C5.47742 4.19788 3.91149 4.73391 3.51825 5.29419ZM15.6869 10.937C15.9743 10.6152 15.9463 10.1213 15.6245 9.83391C15.3026 9.54655 14.8088 9.5745 14.5214 9.89635L11.3839 13.4103L10.4786 12.3964C10.1912 12.0745 9.69736 12.0465 9.37551 12.3339C9.05366 12.6213 9.0257 13.1151 9.31307 13.437L10.8012 15.1037C10.9494 15.2697 11.1614 15.3646 11.3839 15.3646C11.6065 15.3646 11.8185 15.2697 11.9667 15.1037L15.6869 10.937Z" fill="#D9E44F"/>
</svg>
